HIERARCHY
ROOT Hips
{
     OFFSET 1.88212 96.90440 -13.34250
     CHANNELS 6 Xposition Yposition Zposition Zrotation Xrotation Yrotation
     JOINT Spine
     {
          OFFSET 0.00000 11.89050 0.00000
          CHANNELS 3 Zrotation Xrotation Yrotation
          JOINT Spine1
          {
               OFFSET -0.00000 25.65740 0.12766
               CHANNELS 3 Zrotation Xrotation Yrotation
               JOINT HEad
               {
                    OFFSET 0.00000 8.73416 0.01134
                    CHANNELS 3 Zrotation Xrotation Yrotation
                    End Site
                    {
                         OFFSET -0.29000 12.77420 2.51395
                    }
               }
               JOINT LeftShoulder1
               {
                    OFFSET 8.99000 -0.36225 -0.22000
                    CHANNELS 3 Zrotation Xrotation Yrotation
                    JOINT LeftArm
                    {
                         OFFSET 10.28270 -0.00338 0.32212
                         CHANNELS 3 Zrotation Xrotation Yrotation
                         JOINT LeftForeArm
                         {
                              OFFSET 32.76690 0.09914 -1.42434
                              CHANNELS 3 Zrotation Xrotation Yrotation
                              JOINT LeftHand
                              {
                                   OFFSET 27.56430 0.08536 1.02216
                                   CHANNELS 3 Zrotation Xrotation Yrotation
                                   End Site
                                   {
                                        OFFSET 16.74430 -0.60000 1.50291
                                   }
                              }
                         }
                    }
               }
               JOINT RightShoulder
               {
                    OFFSET -8.99000 -0.36225 -0.22000
                    CHANNELS 3 Zrotation Xrotation Yrotation
                    JOINT RightArm
                    {
                         OFFSET -10.28270 -0.00338 0.32212
                         CHANNELS 3 Zrotation Xrotation Yrotation
                         JOINT RightForeArm
                         {
                              OFFSET -32.89710 0.09914 -1.42434
                              CHANNELS 3 Zrotation Xrotation Yrotation
                              JOINT RightHand
                              {
                                   OFFSET -27.49210 0.08536 1.02216
                                   CHANNELS 3 Zrotation Xrotation Yrotation
                                   End Site
                                   {
                                        OFFSET -16.63120 -0.60000 1.50291
                                   }
                              }
                         }
                    }
               }
          }
     }
     JOINT LeftUpLeg
     {
          OFFSET 8.94580 -8.66707 0.10165
          CHANNELS 3 Zrotation Xrotation Yrotation
          JOINT LeftLeg
          {
               OFFSET 0.00000 -44.42270 1.37270
               CHANNELS 3 Zrotation Xrotation Yrotation
               JOINT LeftFoot
               {
                    OFFSET -0.25355 -42.09240 -1.46059
                    CHANNELS 3 Zrotation Xrotation Yrotation
                    JOINT LeftToes
                    {
                         OFFSET -0.04000 -4.41509 8.49910
                         CHANNELS 3 Zrotation Xrotation Yrotation
                         End Site
                         {
                              OFFSET 0.08000 -0.04745 9.77979
                         }
                    }
               }
          }
     }
     JOINT RightUpLeg
     {
          OFFSET -8.94580 -8.66707 0.10165
          CHANNELS 3 Zrotation Xrotation Yrotation
          JOINT RightLeg
          {
               OFFSET 0.00000 -44.42270 1.37270
               CHANNELS 3 Zrotation Xrotation Yrotation
               JOINT RightFoot
               {
                    OFFSET 0.25355 -42.09240 -1.46059
                    CHANNELS 3 Zrotation Xrotation Yrotation
                    JOINT RightToes
                    {
                         OFFSET 0.04000 -4.41509 8.49910
                         CHANNELS 3 Zrotation Xrotation Yrotation
                         End Site
                         {
                              OFFSET -0.08000 -0.13745 9.77979
                         }
                    }
               }
          }
     }
}
MOTION
Frames: 7
Frame Time: 0.01667
44.05632 76.78841 -121.35694 -2.38949 2.20357 -21.33610 -5.66176 10.43144 8.32410 0.00275 0.00352 0.00195 -5.59130 10.06253 18.08649 -1.95326 5.34029 6.34935 -89.13500 -12.13988 -90.10575 -0.08765 35.88290 -100.86877 35.50966 3.58666 -16.21029 33.34354 11.52010 10.43427 56.57998 -8.37843 71.96563 4.86421 38.32980 110.35186 -33.10462 10.90545 -7.37501 21.61963 -47.65252 14.18401 -4.54680 71.58438 12.55578 8.74085 -0.00400 0.00384 -7.33052 -13.72760 -3.00749 -16.53208 -4.23010 2.97175 20.77169 54.89417 -19.11323 20.13345 -0.00515 0.00353 0.93912 -46.08562 20.83363 
43.92375 75.76446 -121.55763 -2.35819 1.77991 -21.28819 -5.93799 11.10325 8.59173 0.00249 0.00342 0.00135 -5.44689 9.95548 17.68200 -2.01335 5.13059 5.90954 -89.29627 -11.91213 -89.95447 0.29389 36.02179 -101.48706 35.56210 3.68453 -16.07764 33.59257 11.11767 10.04940 56.13216 -8.19060 71.44501 4.32161 38.23133 111.01444 -33.14200 10.96163 -7.42972 21.87979 -48.57642 14.26421 -4.55849 73.67973 12.65034 9.26386 -0.00382 0.00429 -8.10038 -14.40124 -3.14185 -16.91773 -5.08693 2.68072 22.19731 57.97495 -20.12887 20.37570 -0.00379 0.00600 1.09929 -48.02751 21.43829 
43.77147 74.69792 -121.76575 -2.30295 1.34029 -21.20441 -6.23505 11.75327 8.82874 0.00198 0.00333 0.00100 -5.33023 9.90957 17.28003 -2.03163 4.94503 5.49022 -89.46555 -11.65948 -89.86536 0.62573 36.12560 -102.00252 35.68930 3.73109 -16.01081 33.79358 10.73706 9.69475 55.69007 -8.00552 70.99048 3.80805 38.05552 111.60653 -33.15265 10.98688 -7.60006 22.17352 -49.63031 14.43948 -4.36128 75.97017 12.47971 9.81148 -0.00338 0.00469 -8.93721 -15.14356 -3.27223 -17.29444 -5.99568 2.37023 23.89896 61.23084 -21.51361 20.75460 -0.00191 0.00834 1.35887 -50.01475 22.27010 
43.60107 73.62257 -121.97180 -2.22621 0.90077 -21.09065 -6.54430 12.37004 9.03639 0.00145 0.00329 0.00077 -5.24173 9.91540 16.88534 -2.01424 4.77987 5.09730 -89.63517 -11.40046 -89.83419 0.89926 36.20816 -102.40700 35.65462 3.83932 -15.87419 33.94733 10.38079 9.37493 55.25961 -7.81842 70.61304 3.34659 37.81867 112.10410 -33.06879 10.99617 -7.74969 22.49007 -50.75908 14.70048 -3.87329 78.34511 11.96740 10.40191 -0.00270 0.00497 -9.85703 -15.89959 -3.38694 -17.64551 -6.91688 2.04921 25.91112 64.51803 -23.31154 21.25342 0.00015 0.01012 1.69939 -52.00412 23.27171 
43.39171 72.57050 -122.15667 -2.12510 0.47701 -20.94943 -6.86191 12.93981 9.21700 0.00101 0.00332 0.00096 -5.18390 9.96354 16.49827 -1.98027 4.61916 4.75300 -89.78025 -11.12831 -89.82562 1.12825 36.28849 -102.72896 35.62401 3.93758 -15.72378 34.06631 10.05449 9.12186 54.80312 -7.63974 70.28535 2.95111 37.51714 112.48044 -32.89870 10.96615 -8.02390 22.82619 -51.89999 15.04614 -2.90181 80.68972 10.91594 11.04464 -0.00193 0.00510 -10.96589 -16.62460 -3.53590 -17.95163 -7.79826 1.72814 28.25662 67.68379 -25.55850 21.84919 0.00207 0.01107 2.15419 -53.87469 24.47206 
43.17287 71.57666 -122.32443 -2.00169 0.08248 -20.78538 -7.17872 13.45345 9.37293 0.00050 0.00328 0.00103 -5.15631 10.04478 16.12162 -1.91436 4.46567 4.44366 -89.92059 -10.86666 -89.83949 1.31090 36.35475 -102.96802 35.56051 4.06169 -15.56701 34.14808 9.75117 8.92038 54.34125 -7.45869 70.01895 2.63795 37.17203 112.72386 -32.79900 10.94074 -8.14476 23.16586 -52.99997 15.45961 -1.06016 82.89662 8.94918 11.74682 -0.00114 0.00500 -12.11114 -17.27987 -3.68590 -18.20381 -8.59767 1.41501 30.93940 70.59358 -28.25326 22.51573 0.00357 0.01099 2.64910 -55.61806 25.71875 
42.94492 70.66730 -122.46774 -1.85700 -0.26998 -20.60207 -7.48649 13.90251 9.50613 -0.00002 0.00327 0.00117 -5.15821 10.14934 15.75718 -1.82173 4.31715 4.17107 -90.05724 -10.62276 -89.87400 1.45009 36.40355 -103.12595 35.48183 4.18087 -15.42795 34.18842 9.47053 8.76955 53.89422 -7.28170 69.81880 2.40864 36.80439 112.83366 -32.66550 10.90114 -8.31085 23.49088 -54.01528 15.92050 2.43012 84.86890 5.29980 12.51348 -0.00046 0.00465 -13.31693 -17.83440 -3.85044 -18.39760 -9.28170 1.11567 33.89394 73.14333 -31.32195 23.23101 0.00450 0.01007 3.16903 -57.14605 26.99118 
